<svg xmlns="http://www.w3.org/2000/svg" xmlns:xlink="http://www.w3.org/1999/xlink" width="456" zoomAndPan="magnify" viewBox="0 0 342 266.999984" height="356" preserveAspectRatio="xMidYMid meet" version="1.0"><defs><clipPath id="6697581e95"><path d="M 91 36 L 277.734375 36 L 277.734375 258.148438 L 91 258.148438 Z M 91 36 " clip-rule="nonzero"/></clipPath><clipPath id="dd5283fd1e"><path d="M 165.480469 213 L 216.480469 213 L 216.480469 231.058594 L 165.480469 231.058594 Z M 165.480469 213 " clip-rule="nonzero"/></clipPath><clipPath id="717d94b71b"><path d="M 166 211.558594 L 216 211.558594 L 216 229 L 166 229 Z M 166 211.558594 " clip-rule="nonzero"/></clipPath></defs><rect x="-34.2" width="410.4" fill="#ffffff" y="-26.699998" height="320.399981" fill-opacity="1"/><rect x="-34.2" width="410.4" fill="#ffffff" y="-26.699998" height="320.399981" fill-opacity="1"/><g clip-path="url(#6697581e95)"><path fill="#e2d8ec" d="M 102.113281 36.832031 L 267.585938 36.832031 C 268.265625 36.832031 268.9375 36.898438 269.601562 37.03125 C 270.269531 37.164062 270.914062 37.359375 271.542969 37.617188 C 272.171875 37.878906 272.765625 38.199219 273.332031 38.574219 C 273.894531 38.953125 274.417969 39.378906 274.898438 39.859375 C 275.378906 40.339844 275.808594 40.863281 276.183594 41.429688 C 276.5625 41.992188 276.878906 42.589844 277.140625 43.214844 C 277.398438 43.84375 277.597656 44.488281 277.730469 45.15625 C 277.863281 45.820312 277.925781 46.496094 277.925781 47.171875 L 277.925781 248.101562 C 277.925781 248.78125 277.863281 249.453125 277.730469 250.117188 C 277.597656 250.785156 277.398438 251.433594 277.140625 252.058594 C 276.878906 252.6875 276.5625 253.28125 276.183594 253.847656 C 275.808594 254.410156 275.378906 254.933594 274.898438 255.414062 C 274.417969 255.894531 273.894531 256.324219 273.332031 256.699219 C 272.765625 257.078125 272.171875 257.394531 271.542969 257.65625 C 270.914062 257.914062 270.269531 258.113281 269.601562 258.246094 C 268.9375 258.378906 268.265625 258.441406 267.585938 258.441406 L 102.113281 258.441406 C 101.433594 258.441406 100.761719 258.378906 100.09375 258.246094 C 99.429688 258.113281 98.78125 257.914062 98.15625 257.65625 C 97.527344 257.394531 96.933594 257.078125 96.367188 256.699219 C 95.800781 256.324219 95.28125 255.894531 94.800781 255.414062 C 94.320312 254.933594 93.890625 254.410156 93.515625 253.847656 C 93.136719 253.28125 92.816406 252.6875 92.558594 252.058594 C 92.296875 251.433594 92.101562 250.785156 91.96875 250.117188 C 91.835938 249.453125 91.769531 248.78125 91.769531 248.101562 L 91.769531 47.171875 C 91.769531 46.496094 91.835938 45.820312 91.96875 45.15625 C 92.101562 44.488281 92.296875 43.84375 92.558594 43.214844 C 92.816406 42.589844 93.136719 41.992188 93.515625 41.429688 C 93.890625 40.863281 94.320312 40.339844 94.800781 39.859375 C 95.28125 39.378906 95.800781 38.953125 96.367188 38.574219 C 96.933594 38.199219 97.527344 37.878906 98.15625 37.617188 C 98.78125 37.359375 99.429688 37.164062 100.09375 37.03125 C 100.761719 36.898438 101.433594 36.832031 102.113281 36.832031 Z M 102.113281 36.832031 " fill-opacity="1" fill-rule="nonzero"/></g><path fill="#ece7f2" d="M 254.289062 23.535156 L 254.289062 230.371094 C 254.285156 231.050781 254.214844 231.722656 254.082031 232.386719 C 253.945312 233.050781 253.75 233.695312 253.488281 234.324219 C 253.226562 234.949219 252.90625 235.542969 252.53125 236.105469 C 252.152344 236.667969 251.726562 237.191406 251.246094 237.671875 C 250.765625 238.148438 250.246094 238.578125 249.679688 238.957031 C 249.117188 239.332031 248.523438 239.652344 247.898438 239.914062 C 247.269531 240.175781 246.625 240.371094 245.960938 240.507812 C 245.296875 240.640625 244.625 240.710938 243.945312 240.714844 L 78.472656 240.714844 C 77.433594 240.710938 76.414062 240.554688 75.417969 240.242188 C 74.421875 239.929688 73.496094 239.480469 72.636719 238.890625 C 71.777344 238.300781 71.023438 237.597656 70.378906 236.777344 C 69.730469 235.960938 69.21875 235.066406 68.84375 234.09375 C 68.363281 232.902344 68.128906 231.660156 68.132812 230.371094 L 68.132812 23.535156 C 68.136719 22.855469 68.203125 22.1875 68.339844 21.519531 C 68.472656 20.855469 68.671875 20.210938 68.933594 19.585938 C 69.195312 18.960938 69.511719 18.363281 69.890625 17.800781 C 70.265625 17.238281 70.695312 16.714844 71.175781 16.238281 C 71.65625 15.757812 72.175781 15.328125 72.738281 14.953125 C 73.304688 14.574219 73.898438 14.253906 74.523438 13.992188 C 75.148438 13.734375 75.796875 13.535156 76.460938 13.398438 C 77.125 13.265625 77.796875 13.195312 78.472656 13.191406 L 243.945312 13.191406 C 245.234375 13.1875 246.472656 13.425781 247.667969 13.902344 C 248.640625 14.28125 249.535156 14.792969 250.351562 15.4375 C 251.171875 16.085938 251.875 16.839844 252.464844 17.699219 C 253.054688 18.558594 253.503906 19.484375 253.816406 20.480469 C 254.128906 21.472656 254.285156 22.492188 254.289062 23.535156 Z M 254.289062 23.535156 " fill-opacity="1" fill-rule="nonzero"/><path fill="#f9f9f9" d="M 248.378906 17.625 L 248.378906 224.460938 C 248.375 225.140625 248.308594 225.8125 248.171875 226.476562 C 248.039062 227.140625 247.839844 227.785156 247.578125 228.414062 C 247.316406 229.039062 247 229.632812 246.621094 230.195312 C 246.242188 230.761719 245.816406 231.28125 245.335938 231.761719 C 244.855469 232.242188 244.335938 232.667969 243.769531 233.046875 C 243.207031 233.425781 242.613281 233.742188 241.988281 234.003906 C 241.359375 234.265625 240.714844 234.464844 240.050781 234.597656 C 239.386719 234.734375 238.714844 234.800781 238.035156 234.804688 L 72.5625 234.804688 C 71.277344 234.808594 70.035156 234.574219 68.84375 234.09375 C 68.363281 232.902344 68.128906 231.660156 68.132812 230.371094 L 68.132812 23.535156 C 68.136719 22.855469 68.203125 22.1875 68.339844 21.519531 C 68.472656 20.855469 68.671875 20.210938 68.933594 19.585938 C 69.195312 18.960938 69.511719 18.363281 69.890625 17.800781 C 70.265625 17.238281 70.695312 16.714844 71.175781 16.238281 C 71.65625 15.757812 72.175781 15.328125 72.738281 14.953125 C 73.304688 14.574219 73.898438 14.253906 74.523438 13.992188 C 75.148438 13.734375 75.796875 13.535156 76.460938 13.398438 C 77.125 13.265625 77.796875 13.195312 78.472656 13.191406 L 243.945312 13.191406 C 245.234375 13.1875 246.472656 13.425781 247.667969 13.902344 C 248.148438 15.097656 248.382812 16.339844 248.378906 17.625 Z M 248.378906 17.625 " fill-opacity="1" fill-rule="nonzero"/><path fill="#ffdc67" d="M 102.113281 48.652344 L 143.480469 48.652344 C 143.773438 48.652344 144.058594 48.679688 144.347656 48.734375 C 144.632812 48.792969 144.910156 48.878906 145.175781 48.988281 C 145.445312 49.101562 145.703125 49.238281 145.945312 49.398438 C 146.1875 49.558594 146.410156 49.742188 146.617188 49.949219 C 146.820312 50.15625 147.003906 50.378906 147.167969 50.621094 C 147.328125 50.863281 147.464844 51.117188 147.574219 51.386719 C 147.6875 51.65625 147.773438 51.933594 147.828125 52.21875 C 147.886719 52.503906 147.914062 52.792969 147.914062 53.082031 L 147.914062 94.449219 C 147.914062 94.742188 147.886719 95.03125 147.828125 95.316406 C 147.773438 95.601562 147.6875 95.878906 147.574219 96.148438 C 147.464844 96.414062 147.328125 96.671875 147.167969 96.914062 C 147.003906 97.15625 146.820312 97.378906 146.617188 97.585938 C 146.410156 97.789062 146.1875 97.972656 145.945312 98.136719 C 145.703125 98.296875 145.445312 98.433594 145.175781 98.546875 C 144.910156 98.65625 144.632812 98.742188 144.347656 98.796875 C 144.058594 98.855469 143.773438 98.882812 143.480469 98.882812 L 102.113281 98.882812 C 101.820312 98.882812 101.535156 98.855469 101.25 98.796875 C 100.960938 98.742188 100.6875 98.65625 100.417969 98.546875 C 100.148438 98.433594 99.890625 98.296875 99.652344 98.136719 C 99.410156 97.972656 99.183594 97.789062 98.980469 97.585938 C 98.773438 97.378906 98.589844 97.15625 98.425781 96.914062 C 98.265625 96.671875 98.128906 96.414062 98.019531 96.148438 C 97.90625 95.878906 97.824219 95.601562 97.765625 95.316406 C 97.710938 95.03125 97.679688 94.742188 97.679688 94.449219 L 97.679688 53.082031 C 97.679688 52.792969 97.710938 52.503906 97.765625 52.21875 C 97.824219 51.933594 97.90625 51.65625 98.019531 51.386719 C 98.128906 51.117188 98.265625 50.863281 98.425781 50.621094 C 98.589844 50.378906 98.773438 50.15625 98.980469 49.949219 C 99.183594 49.742188 99.410156 49.558594 99.652344 49.398438 C 99.890625 49.238281 100.148438 49.101562 100.417969 48.988281 C 100.6875 48.878906 100.960938 48.792969 101.25 48.734375 C 101.535156 48.679688 101.820312 48.652344 102.113281 48.652344 Z M 102.113281 48.652344 " fill-opacity="1" fill-rule="nonzero"/><path fill="#cdc9d1" d="M 220.308594 63.425781 L 167.121094 63.425781 C 166.828125 63.425781 166.539062 63.398438 166.253906 63.339844 C 165.96875 63.285156 165.691406 63.199219 165.425781 63.085938 C 165.15625 62.976562 164.898438 62.839844 164.65625 62.679688 C 164.414062 62.515625 164.191406 62.332031 163.984375 62.128906 C 163.78125 61.921875 163.597656 61.699219 163.433594 61.457031 C 163.273438 61.214844 163.136719 60.957031 163.023438 60.6875 C 162.914062 60.421875 162.828125 60.144531 162.773438 59.859375 C 162.714844 59.570312 162.6875 59.285156 162.6875 58.992188 C 162.6875 58.703125 162.714844 58.414062 162.773438 58.128906 C 162.828125 57.84375 162.914062 57.566406 163.023438 57.296875 C 163.136719 57.027344 163.273438 56.773438 163.433594 56.53125 C 163.597656 56.289062 163.78125 56.066406 163.984375 55.859375 C 164.191406 55.652344 164.414062 55.46875 164.65625 55.308594 C 164.898438 55.144531 165.15625 55.007812 165.425781 54.898438 C 165.691406 54.785156 165.96875 54.703125 166.253906 54.644531 C 166.539062 54.589844 166.828125 54.5625 167.121094 54.5625 L 220.308594 54.5625 C 220.597656 54.5625 220.886719 54.589844 221.171875 54.644531 C 221.457031 54.703125 221.734375 54.785156 222.003906 54.898438 C 222.273438 55.007812 222.527344 55.144531 222.769531 55.308594 C 223.011719 55.46875 223.234375 55.652344 223.441406 55.859375 C 223.648438 56.066406 223.832031 56.289062 223.992188 56.53125 C 224.15625 56.773438 224.292969 57.027344 224.402344 57.296875 C 224.515625 57.566406 224.597656 57.84375 224.65625 58.128906 C 224.710938 58.414062 224.738281 58.703125 224.738281 58.992188 C 224.738281 59.285156 224.710938 59.570312 224.65625 59.859375 C 224.597656 60.144531 224.515625 60.421875 224.402344 60.6875 C 224.292969 60.957031 224.15625 61.214844 223.992188 61.457031 C 223.832031 61.699219 223.648438 61.921875 223.441406 62.128906 C 223.234375 62.332031 223.011719 62.515625 222.769531 62.679688 C 222.527344 62.839844 222.273438 62.976562 222.003906 63.085938 C 221.734375 63.199219 221.457031 63.285156 221.171875 63.339844 C 220.886719 63.398438 220.597656 63.425781 220.308594 63.425781 Z M 220.308594 63.425781 " fill-opacity="1" fill-rule="nonzero"/><path fill="#cdc9d1" d="M 155.300781 134.339844 L 102.113281 134.339844 C 101.820312 134.339844 101.535156 134.3125 101.25 134.253906 C 100.960938 134.199219 100.6875 134.113281 100.417969 134.003906 C 100.148438 133.890625 99.890625 133.753906 99.652344 133.59375 C 99.410156 133.433594 99.183594 133.25 98.980469 133.042969 C 98.773438 132.835938 98.589844 132.613281 98.425781 132.371094 C 98.265625 132.128906 98.128906 131.875 98.019531 131.605469 C 97.90625 131.335938 97.824219 131.058594 97.765625 130.773438 C 97.710938 130.488281 97.679688 130.199219 97.679688 129.910156 C 97.679688 129.617188 97.710938 129.328125 97.765625 129.042969 C 97.824219 128.757812 97.90625 128.480469 98.019531 128.210938 C 98.128906 127.945312 98.265625 127.6875 98.425781 127.445312 C 98.589844 127.203125 98.773438 126.980469 98.980469 126.773438 C 99.183594 126.570312 99.410156 126.386719 99.652344 126.222656 C 99.890625 126.0625 100.148438 125.925781 100.417969 125.8125 C 100.6875 125.703125 100.960938 125.617188 101.25 125.5625 C 101.535156 125.503906 101.820312 125.476562 102.113281 125.476562 L 155.300781 125.476562 C 155.589844 125.476562 155.878906 125.503906 156.164062 125.5625 C 156.449219 125.617188 156.726562 125.703125 156.996094 125.8125 C 157.265625 125.925781 157.519531 126.0625 157.761719 126.222656 C 158.003906 126.386719 158.230469 126.570312 158.433594 126.773438 C 158.640625 126.980469 158.824219 127.203125 158.984375 127.445312 C 159.148438 127.6875 159.285156 127.945312 159.394531 128.210938 C 159.507812 128.480469 159.589844 128.757812 159.648438 129.042969 C 159.703125 129.328125 159.734375 129.617188 159.734375 129.910156 C 159.734375 130.199219 159.703125 130.488281 159.648438 130.773438 C 159.589844 131.058594 159.507812 131.335938 159.394531 131.605469 C 159.285156 131.875 159.148438 132.128906 158.984375 132.371094 C 158.824219 132.613281 158.640625 132.835938 158.433594 133.042969 C 158.230469 133.25 158.003906 133.433594 157.761719 133.59375 C 157.519531 133.753906 157.265625 133.890625 156.996094 134.003906 C 156.726562 134.113281 156.449219 134.199219 156.164062 134.253906 C 155.878906 134.3125 155.589844 134.339844 155.300781 134.339844 Z M 155.300781 134.339844 " fill-opacity="1" fill-rule="nonzero"/><path fill="#cdc9d1" d="M 220.308594 157.980469 L 102.113281 157.980469 C 101.820312 157.980469 101.535156 157.949219 101.25 157.894531 C 100.960938 157.835938 100.6875 157.753906 100.417969 157.640625 C 100.148438 157.53125 99.890625 157.394531 99.652344 157.234375 C 99.410156 157.070312 99.183594 156.886719 98.980469 156.679688 C 98.773438 156.476562 98.589844 156.25 98.425781 156.007812 C 98.265625 155.769531 98.128906 155.511719 98.019531 155.242188 C 97.90625 154.972656 97.824219 154.699219 97.765625 154.410156 C 97.710938 154.125 97.679688 153.839844 97.679688 153.546875 C 97.679688 153.257812 97.710938 152.96875 97.765625 152.683594 C 97.824219 152.398438 97.90625 152.121094 98.019531 151.851562 C 98.128906 151.582031 98.265625 151.328125 98.425781 151.085938 C 98.589844 150.84375 98.773438 150.617188 98.980469 150.414062 C 99.183594 150.207031 99.410156 150.023438 99.652344 149.863281 C 99.890625 149.699219 100.148438 149.5625 100.417969 149.453125 C 100.6875 149.339844 100.960938 149.257812 101.25 149.199219 C 101.535156 149.144531 101.820312 149.113281 102.113281 149.113281 L 220.308594 149.113281 C 220.597656 149.113281 220.886719 149.144531 221.171875 149.199219 C 221.457031 149.257812 221.734375 149.339844 222.003906 149.453125 C 222.273438 149.5625 222.527344 149.699219 222.769531 149.863281 C 223.011719 150.023438 223.234375 150.207031 223.441406 150.414062 C 223.648438 150.617188 223.832031 150.84375 223.992188 151.085938 C 224.15625 151.328125 224.292969 151.582031 224.402344 151.851562 C 224.515625 152.121094 224.597656 152.398438 224.65625 152.683594 C 224.710938 152.96875 224.738281 153.257812 224.738281 153.546875 C 224.738281 153.839844 224.710938 154.125 224.65625 154.410156 C 224.597656 154.699219 224.515625 154.972656 224.402344 155.242188 C 224.292969 155.511719 224.15625 155.769531 223.992188 156.007812 C 223.832031 156.25 223.648438 156.476562 223.441406 156.679688 C 223.234375 156.886719 223.011719 157.070312 222.769531 157.234375 C 222.527344 157.394531 222.273438 157.53125 222.003906 157.640625 C 221.734375 157.753906 221.457031 157.835938 221.171875 157.894531 C 220.886719 157.949219 220.597656 157.980469 220.308594 157.980469 Z M 220.308594 157.980469 " fill-opacity="1" fill-rule="nonzero"/><path fill="#cdc9d1" d="M 220.308594 181.617188 L 102.113281 181.617188 C 101.820312 181.617188 101.535156 181.589844 101.25 181.53125 C 100.960938 181.476562 100.6875 181.390625 100.417969 181.28125 C 100.148438 181.167969 99.890625 181.03125 99.652344 180.871094 C 99.410156 180.710938 99.183594 180.527344 98.980469 180.320312 C 98.773438 180.113281 98.589844 179.890625 98.425781 179.648438 C 98.265625 179.40625 98.128906 179.152344 98.019531 178.882812 C 97.90625 178.613281 97.824219 178.335938 97.765625 178.050781 C 97.710938 177.765625 97.679688 177.476562 97.679688 177.1875 C 97.679688 176.894531 97.710938 176.605469 97.765625 176.320312 C 97.824219 176.035156 97.90625 175.757812 98.019531 175.488281 C 98.128906 175.222656 98.265625 174.964844 98.425781 174.722656 C 98.589844 174.480469 98.773438 174.257812 98.980469 174.050781 C 99.183594 173.847656 99.410156 173.664062 99.652344 173.5 C 99.890625 173.339844 100.148438 173.203125 100.417969 173.089844 C 100.6875 172.980469 100.960938 172.894531 101.25 172.839844 C 101.535156 172.78125 101.820312 172.753906 102.113281 172.753906 L 220.308594 172.753906 C 220.597656 172.753906 220.886719 172.78125 221.171875 172.839844 C 221.457031 172.894531 221.734375 172.980469 222.003906 173.089844 C 222.273438 173.203125 222.527344 173.339844 222.769531 173.5 C 223.011719 173.664062 223.234375 173.847656 223.441406 174.050781 C 223.648438 174.257812 223.832031 174.480469 223.992188 174.722656 C 224.15625 174.964844 224.292969 175.222656 224.402344 175.488281 C 224.515625 175.757812 224.597656 176.035156 224.65625 176.320312 C 224.710938 176.605469 224.738281 176.894531 224.738281 177.1875 C 224.738281 177.476562 224.710938 177.765625 224.65625 178.050781 C 224.597656 178.335938 224.515625 178.613281 224.402344 178.882812 C 224.292969 179.152344 224.15625 179.40625 223.992188 179.648438 C 223.832031 179.890625 223.648438 180.113281 223.441406 180.320312 C 223.234375 180.527344 223.011719 180.710938 222.769531 180.871094 C 222.527344 181.03125 222.273438 181.167969 222.003906 181.28125 C 221.734375 181.390625 221.457031 181.476562 221.171875 181.53125 C 220.886719 181.589844 220.597656 181.617188 220.308594 181.617188 Z M 220.308594 181.617188 " fill-opacity="1" fill-rule="nonzero"/><path fill="#cdc9d1" d="M 220.308594 205.257812 L 161.210938 205.257812 C 160.917969 205.257812 160.632812 205.226562 160.34375 205.171875 C 160.058594 205.113281 159.78125 205.03125 159.515625 204.917969 C 159.246094 204.808594 158.988281 204.671875 158.746094 204.507812 C 158.507812 204.347656 158.28125 204.164062 158.078125 203.957031 C 157.871094 203.753906 157.6875 203.527344 157.523438 203.285156 C 157.363281 203.042969 157.226562 202.789062 157.117188 202.519531 C 157.003906 202.25 156.921875 201.972656 156.863281 201.6875 C 156.804688 201.402344 156.777344 201.117188 156.777344 200.824219 C 156.777344 200.535156 156.804688 200.246094 156.863281 199.960938 C 156.921875 199.675781 157.003906 199.398438 157.117188 199.128906 C 157.226562 198.859375 157.363281 198.605469 157.523438 198.363281 C 157.6875 198.121094 157.871094 197.894531 158.078125 197.691406 C 158.28125 197.484375 158.507812 197.300781 158.746094 197.140625 C 158.988281 196.976562 159.246094 196.839844 159.515625 196.730469 C 159.78125 196.617188 160.058594 196.535156 160.34375 196.476562 C 160.632812 196.421875 160.917969 196.390625 161.210938 196.390625 L 220.308594 196.390625 C 220.597656 196.390625 220.886719 196.421875 221.171875 196.476562 C 221.457031 196.535156 221.734375 196.617188 222.003906 196.730469 C 222.273438 196.839844 222.527344 196.976562 222.769531 197.140625 C 223.011719 197.300781 223.234375 197.484375 223.441406 197.691406 C 223.648438 197.894531 223.832031 198.121094 223.992188 198.363281 C 224.15625 198.605469 224.292969 198.859375 224.402344 199.128906 C 224.515625 199.398438 224.597656 199.675781 224.65625 199.960938 C 224.710938 200.246094 224.738281 200.535156 224.738281 200.824219 C 224.738281 201.117188 224.710938 201.402344 224.65625 201.6875 C 224.597656 201.972656 224.515625 202.25 224.402344 202.519531 C 224.292969 202.789062 224.15625 203.042969 223.992188 203.285156 C 223.832031 203.527344 223.648438 203.753906 223.441406 203.957031 C 223.234375 204.164062 223.011719 204.347656 222.769531 204.507812 C 222.527344 204.671875 222.273438 204.808594 222.003906 204.917969 C 221.734375 205.03125 221.457031 205.113281 221.171875 205.171875 C 220.886719 205.226562 220.597656 205.257812 220.308594 205.257812 Z M 220.308594 205.257812 " fill-opacity="1" fill-rule="nonzero"/><path fill="#cdc9d1" d="M 220.308594 92.972656 L 167.121094 92.972656 C 166.828125 92.972656 166.539062 92.945312 166.253906 92.886719 C 165.96875 92.832031 165.691406 92.746094 165.425781 92.636719 C 165.15625 92.523438 164.898438 92.386719 164.65625 92.226562 C 164.414062 92.066406 164.191406 91.882812 163.984375 91.675781 C 163.78125 91.46875 163.597656 91.246094 163.433594 91.003906 C 163.273438 90.761719 163.136719 90.507812 163.023438 90.238281 C 162.914062 89.96875 162.828125 89.691406 162.773438 89.40625 C 162.714844 89.121094 162.6875 88.832031 162.6875 88.542969 C 162.6875 88.25 162.714844 87.960938 162.773438 87.675781 C 162.828125 87.390625 162.914062 87.113281 163.023438 86.84375 C 163.136719 86.574219 163.273438 86.320312 163.433594 86.078125 C 163.597656 85.835938 163.78125 85.613281 163.984375 85.40625 C 164.191406 85.203125 164.414062 85.019531 164.65625 84.855469 C 164.898438 84.695312 165.15625 84.558594 165.425781 84.445312 C 165.691406 84.335938 165.96875 84.25 166.253906 84.195312 C 166.539062 84.136719 166.828125 84.109375 167.121094 84.109375 L 220.308594 84.109375 C 220.597656 84.109375 220.886719 84.136719 221.171875 84.195312 C 221.457031 84.25 221.734375 84.335938 222.003906 84.445312 C 222.273438 84.558594 222.527344 84.695312 222.769531 84.855469 C 223.011719 85.019531 223.234375 85.203125 223.441406 85.40625 C 223.648438 85.613281 223.832031 85.835938 223.992188 86.078125 C 224.15625 86.320312 224.292969 86.574219 224.402344 86.84375 C 224.515625 87.113281 224.597656 87.390625 224.65625 87.675781 C 224.710938 87.960938 224.738281 88.25 224.738281 88.542969 C 224.738281 88.832031 224.710938 89.121094 224.65625 89.40625 C 224.597656 89.691406 224.515625 89.96875 224.402344 90.238281 C 224.292969 90.507812 224.15625 90.761719 223.992188 91.003906 C 223.832031 91.246094 223.648438 91.46875 223.441406 91.675781 C 223.234375 91.882812 223.011719 92.066406 222.769531 92.226562 C 222.527344 92.386719 222.273438 92.523438 222.003906 92.636719 C 221.734375 92.746094 221.457031 92.832031 221.171875 92.886719 C 220.886719 92.945312 220.597656 92.972656 220.308594 92.972656 Z M 220.308594 92.972656 " fill-opacity="1" fill-rule="nonzero"/><path fill="#0f61a5" d="M 207.46875 230.539062 L 174.492188 230.539062 C 169.804688 230.539062 166.003906 226.789062 166.003906 222.164062 C 166.003906 217.535156 169.804688 213.785156 174.492188 213.785156 L 207.46875 213.785156 C 212.15625 213.785156 215.957031 217.535156 215.957031 222.164062 C 215.957031 226.789062 212.15625 230.539062 207.46875 230.539062 Z M 207.46875 230.539062 " fill-opacity="1" fill-rule="nonzero"/><g clip-path="url(#dd5283fd1e)"><path fill="#070606" d="M 207.46875 231.054688 L 174.492188 231.054688 C 169.523438 231.054688 165.480469 227.066406 165.480469 222.164062 C 165.480469 217.257812 169.523438 213.269531 174.492188 213.269531 L 207.46875 213.269531 C 212.4375 213.269531 216.480469 217.257812 216.480469 222.164062 C 216.480469 227.066406 212.4375 231.054688 207.46875 231.054688 Z M 174.492188 214.300781 C 170.097656 214.300781 166.523438 217.828125 166.523438 222.164062 C 166.523438 226.5 170.097656 230.027344 174.492188 230.027344 L 207.46875 230.027344 C 211.863281 230.027344 215.433594 226.5 215.433594 222.164062 C 215.433594 217.828125 211.859375 214.300781 207.46875 214.300781 C 207.46875 214.300781 174.492188 214.300781 174.492188 214.300781 Z M 174.492188 214.300781 " fill-opacity="1" fill-rule="nonzero"/></g><g clip-path="url(#717d94b71b)"><path fill="#0075ff" d="M 206.914062 228.089844 L 175.046875 228.089844 C 170.421875 228.089844 166.671875 224.386719 166.671875 219.824219 C 166.671875 215.257812 170.421875 211.558594 175.046875 211.558594 L 206.914062 211.558594 C 211.539062 211.558594 215.289062 215.257812 215.289062 219.824219 C 215.289062 224.386719 211.539062 228.089844 206.914062 228.089844 Z M 206.914062 228.089844 " fill-opacity="1" fill-rule="nonzero"/></g><path fill="#ffffff" d="M 178.242188 222.601562 C 177.46875 222.601562 176.816406 222.394531 176.289062 221.972656 C 176.125 221.847656 176.042969 221.695312 176.042969 221.527344 C 176.042969 221.378906 176.101562 221.246094 176.222656 221.128906 C 176.339844 221.011719 176.496094 220.953125 176.683594 220.953125 C 176.835938 220.953125 176.976562 221 177.097656 221.09375 C 177.402344 221.328125 177.785156 221.445312 178.242188 221.445312 C 178.425781 221.445312 178.601562 221.40625 178.769531 221.324219 C 178.929688 221.246094 179.011719 221.128906 179.011719 220.964844 C 179.011719 220.875 178.972656 220.796875 178.894531 220.730469 C 178.816406 220.664062 178.707031 220.601562 178.558594 220.542969 C 178.410156 220.480469 178.246094 220.417969 178.058594 220.355469 C 177.855469 220.289062 177.648438 220.210938 177.433594 220.121094 C 177.222656 220.035156 177.023438 219.929688 176.839844 219.800781 C 176.652344 219.675781 176.503906 219.523438 176.386719 219.339844 C 176.273438 219.15625 176.21875 218.941406 176.21875 218.6875 C 176.21875 218.160156 176.429688 217.742188 176.855469 217.4375 C 177.21875 217.179688 177.679688 217.046875 178.242188 217.046875 C 178.53125 217.046875 178.832031 217.089844 179.140625 217.171875 C 179.445312 217.253906 179.714844 217.378906 179.941406 217.542969 C 180.125 217.671875 180.214844 217.828125 180.214844 218.003906 C 180.214844 218.15625 180.15625 218.289062 180.035156 218.40625 C 179.914062 218.523438 179.761719 218.582031 179.578125 218.582031 C 179.433594 218.582031 179.304688 218.542969 179.1875 218.464844 C 179.058594 218.375 178.90625 218.3125 178.730469 218.269531 C 178.558594 218.222656 178.394531 218.203125 178.242188 218.203125 C 178.050781 218.203125 177.886719 218.234375 177.742188 218.296875 C 177.609375 218.359375 177.539062 218.46875 177.539062 218.625 C 177.539062 218.699219 177.574219 218.765625 177.644531 218.820312 C 177.710938 218.878906 177.816406 218.933594 177.953125 218.988281 C 178.089844 219.042969 178.246094 219.101562 178.421875 219.160156 C 178.628906 219.230469 178.84375 219.308594 179.0625 219.402344 C 179.285156 219.492188 179.492188 219.601562 179.683594 219.734375 C 179.875 219.867188 180.035156 220.03125 180.15625 220.21875 C 180.273438 220.410156 180.335938 220.640625 180.335938 220.90625 C 180.335938 221.175781 180.277344 221.417969 180.160156 221.628906 C 180.042969 221.839844 179.886719 222.019531 179.683594 222.164062 C 179.484375 222.308594 179.257812 222.417969 179.007812 222.492188 C 178.757812 222.5625 178.503906 222.601562 178.242188 222.601562 Z M 178.242188 222.601562 " fill-opacity="1" fill-rule="nonzero"/><path fill="#ffffff" d="M 183.601562 222.601562 C 183.171875 222.601562 182.800781 222.515625 182.476562 222.34375 C 182.15625 222.167969 181.910156 221.929688 181.734375 221.628906 C 181.5625 221.324219 181.476562 220.972656 181.476562 220.574219 L 181.476562 217.617188 C 181.476562 217.449219 181.542969 217.3125 181.679688 217.207031 C 181.816406 217.101562 181.976562 217.046875 182.15625 217.046875 C 182.339844 217.046875 182.5 217.101562 182.636719 217.207031 C 182.773438 217.3125 182.84375 217.449219 182.84375 217.617188 L 182.84375 220.574219 C 182.84375 220.847656 182.90625 221.0625 183.035156 221.214844 C 183.164062 221.367188 183.355469 221.445312 183.601562 221.445312 C 184.136719 221.445312 184.402344 221.152344 184.402344 220.574219 L 184.402344 217.625 C 184.402344 217.46875 184.46875 217.332031 184.59375 217.21875 C 184.722656 217.105469 184.878906 217.046875 185.0625 217.046875 C 185.25 217.046875 185.40625 217.105469 185.535156 217.21875 C 185.660156 217.335938 185.726562 217.46875 185.726562 217.625 L 185.726562 220.574219 C 185.726562 220.972656 185.640625 221.324219 185.464844 221.625 C 185.292969 221.929688 185.042969 222.167969 184.722656 222.339844 C 184.402344 222.515625 184.027344 222.601562 183.601562 222.601562 Z M 183.601562 222.601562 " fill-opacity="1" fill-rule="nonzero"/><path fill="#ffffff" d="M 189.3125 222.546875 L 188.011719 222.546875 C 187.824219 222.546875 187.671875 222.488281 187.550781 222.371094 C 187.433594 222.253906 187.371094 222.121094 187.371094 221.972656 L 187.371094 217.675781 C 187.371094 217.527344 187.433594 217.394531 187.550781 217.277344 C 187.671875 217.160156 187.824219 217.101562 188.011719 217.101562 L 189.21875 217.101562 C 189.78125 217.101562 190.25 217.214844 190.625 217.441406 C 191.09375 217.726562 191.324219 218.132812 191.324219 218.664062 C 191.324219 219.144531 191.164062 219.519531 190.84375 219.78125 C 191.226562 220.050781 191.421875 220.449219 191.421875 220.984375 C 191.421875 221.515625 191.1875 221.921875 190.71875 222.207031 C 190.339844 222.433594 189.871094 222.546875 189.3125 222.546875 Z M 188.769531 219.253906 C 189.101562 219.253906 189.371094 219.21875 189.578125 219.152344 C 189.832031 219.070312 189.960938 218.90625 189.960938 218.660156 C 189.960938 218.503906 189.878906 218.394531 189.71875 218.335938 C 189.5625 218.28125 189.382812 218.253906 189.175781 218.253906 L 188.742188 218.253906 L 188.742188 219.253906 C 188.742188 219.253906 188.769531 219.253906 188.769531 219.253906 Z M 189.265625 221.394531 C 189.476562 221.394531 189.65625 221.363281 189.8125 221.308594 C 189.972656 221.25 190.054688 221.140625 190.054688 220.984375 C 190.054688 220.835938 190.019531 220.730469 189.949219 220.664062 C 189.785156 220.511719 189.535156 220.425781 189.191406 220.40625 C 189.027344 220.394531 188.878906 220.390625 188.738281 220.390625 L 188.738281 221.394531 Z M 189.265625 221.394531 " fill-opacity="1" fill-rule="nonzero"/><path fill="#ffffff" d="M 197.347656 222.601562 C 197.164062 222.601562 197.003906 222.550781 196.867188 222.441406 C 196.730469 222.335938 196.664062 222.199219 196.664062 222.035156 L 196.664062 219.703125 L 195.851562 220.824219 C 195.726562 221 195.554688 221.085938 195.328125 221.085938 C 195.089844 221.085938 194.90625 220.996094 194.78125 220.816406 L 194.074219 219.785156 L 194.074219 222.023438 C 194.074219 222.171875 194.011719 222.308594 193.890625 222.425781 C 193.769531 222.542969 193.617188 222.601562 193.429688 222.601562 C 193.242188 222.601562 193.089844 222.542969 192.96875 222.425781 C 192.851562 222.308594 192.789062 222.171875 192.789062 222.023438 L 192.789062 217.628906 C 192.789062 217.476562 192.851562 217.34375 192.972656 217.222656 C 193.09375 217.105469 193.246094 217.046875 193.433594 217.046875 C 193.65625 217.046875 193.835938 217.140625 193.964844 217.324219 L 195.382812 219.371094 L 196.867188 217.316406 C 197 217.136719 197.171875 217.046875 197.394531 217.046875 C 197.582031 217.046875 197.734375 217.105469 197.855469 217.222656 C 197.972656 217.34375 198.03125 217.476562 198.03125 217.628906 L 198.03125 222.03125 C 198.03125 222.199219 197.964844 222.335938 197.828125 222.441406 C 197.691406 222.550781 197.53125 222.601562 197.347656 222.601562 Z M 197.347656 222.601562 " fill-opacity="1" fill-rule="nonzero"/><path fill="#ffffff" d="M 200.507812 222.601562 C 200.324219 222.601562 200.160156 222.550781 200.023438 222.441406 C 199.886719 222.335938 199.820312 222.199219 199.820312 222.03125 L 199.820312 217.617188 C 199.820312 217.449219 199.886719 217.3125 200.023438 217.203125 C 200.160156 217.097656 200.324219 217.046875 200.507812 217.046875 C 200.6875 217.046875 200.847656 217.097656 200.984375 217.203125 C 201.121094 217.3125 201.191406 217.449219 201.191406 217.617188 L 201.191406 222.03125 C 201.191406 222.199219 201.121094 222.335938 200.984375 222.441406 C 200.847656 222.546875 200.6875 222.601562 200.507812 222.601562 Z M 200.507812 222.601562 " fill-opacity="1" fill-rule="nonzero"/><path fill="#ffffff" d="M 203.953125 222.597656 C 203.769531 222.597656 203.609375 222.546875 203.472656 222.441406 C 203.335938 222.335938 203.265625 222.199219 203.265625 222.027344 L 203.265625 218.257812 L 202.640625 218.257812 C 202.453125 218.257812 202.296875 218.199219 202.175781 218.085938 C 202.050781 217.972656 201.992188 217.835938 201.992188 217.675781 C 201.992188 217.515625 202.050781 217.382812 202.175781 217.269531 C 202.296875 217.15625 202.453125 217.101562 202.640625 217.101562 L 205.265625 217.101562 C 205.453125 217.101562 205.609375 217.15625 205.734375 217.269531 C 205.855469 217.382812 205.917969 217.515625 205.917969 217.675781 C 205.917969 217.835938 205.855469 217.96875 205.734375 218.085938 C 205.609375 218.199219 205.453125 218.257812 205.265625 218.257812 L 204.640625 218.257812 L 204.640625 222.03125 C 204.640625 222.199219 204.570312 222.335938 204.433594 222.441406 C 204.296875 222.546875 204.132812 222.597656 203.953125 222.597656 Z M 203.953125 222.597656 " fill-opacity="1" fill-rule="nonzero"/></svg>